<svg xmlns="http://www.w3.org/2000/svg" viewBox="0 0 600 600" fill="none" stroke="#C9A961" stroke-width="1.2" stroke-linecap="round" stroke-linejoin="round">
  <!-- Main trace network -->
  <path d="M 600 80 L 480 80 L 460 100 L 460 180 L 440 200 L 320 200 L 300 220 L 300 340"/>
  <path d="M 600 160 L 520 160 L 500 180 L 500 280 L 480 300 L 380 300"/>
  <path d="M 600 240 L 560 240 L 540 260 L 540 380 L 520 400 L 400 400 L 380 420 L 380 520"/>
  <path d="M 600 360 L 580 360 L 560 380 L 560 460 L 540 480 L 460 480"/>
  <path d="M 600 440 L 580 440"/>
  <path d="M 300 340 L 320 360 L 420 360"/>
  <path d="M 380 300 L 400 320 L 460 320"/>

  <!-- Diagonal cross-trace -->
  <path d="M 540 120 L 420 240" stroke-dasharray="4 4"/>

  <!-- Vias (drilled holes / connection points) -->
  <circle cx="460" cy="100" r="4" fill="#C9A961" stroke="none"/>
  <circle cx="500" cy="180" r="4" fill="#C9A961" stroke="none"/>
  <circle cx="540" cy="260" r="4" fill="#C9A961" stroke="none"/>
  <circle cx="560" cy="380" r="4" fill="#C9A961" stroke="none"/>
  <circle cx="300" cy="220" r="4" fill="#C9A961" stroke="none"/>
  <circle cx="300" cy="340" r="4" fill="#C9A961" stroke="none"/>
  <circle cx="380" cy="300" r="4" fill="#C9A961" stroke="none"/>
  <circle cx="380" cy="420" r="4" fill="#C9A961" stroke="none"/>
  <circle cx="380" cy="520" r="4" fill="#C9A961" stroke="none"/>
  <circle cx="460" cy="480" r="4" fill="#C9A961" stroke="none"/>
  <circle cx="420" cy="360" r="4" fill="#C9A961" stroke="none"/>
  <circle cx="460" cy="320" r="4" fill="#C9A961" stroke="none"/>

  <!-- IC chip outline (small detail) -->
  <rect x="440" y="40" width="60" height="30" rx="2"/>
  <line x1="448" y1="40" x2="448" y2="34"/>
  <line x1="460" y1="40" x2="460" y2="34"/>
  <line x1="472" y1="40" x2="472" y2="34"/>
  <line x1="484" y1="40" x2="484" y2="34"/>
  <line x1="496" y1="40" x2="496" y2="34"/>
  <line x1="448" y1="70" x2="448" y2="76"/>
  <line x1="460" y1="70" x2="460" y2="76"/>
  <line x1="472" y1="70" x2="472" y2="76"/>
  <line x1="484" y1="70" x2="484" y2="76"/>
  <line x1="496" y1="70" x2="496" y2="76"/>

  <!-- Resistor / capacitor stylization -->
  <rect x="340" y="190" width="20" height="12" rx="1"/>
  <rect x="340" y="290" width="20" height="12" rx="1"/>

  <!-- Test point markers -->
  <circle cx="600" cy="80" r="3" fill="none"/>
  <circle cx="600" cy="160" r="3" fill="none"/>
  <circle cx="600" cy="240" r="3" fill="none"/>
  <circle cx="600" cy="360" r="3" fill="none"/>
  <circle cx="600" cy="440" r="3" fill="none"/>
</svg>
